<?xml version="1.0" standalone="no"?>
<!DOCTYPE svg PUBLIC "-//W3C//DTD SVG 1.1//EN" "http://www.w3.org/Graphics/SVG/1.1/DTD/svg11.dtd" >
<!--
2013-9-30: Created.
-->
<svg>
<metadata>
Created by iconfont
</metadata>
<defs>

<font id="iconfont" horiz-adv-x="1024" >
  <font-face
    font-family="iconfont"
    font-weight="500"
    font-stretch="normal"
    units-per-em="1024"
    ascent="896"
    descent="-128"
  />
    <missing-glyph />
    
    <glyph glyph-name="changyonggoupiaorenshanchu" unicode="&#58950;" d="M38.68444445 602.4533333300001a36.40888889 36.40888889 0 1 0 0 72.81777778h946.6311111a36.40888889 36.40888889 0 0 0 0-72.81777778H38.68444445z m837.40444444 0h72.81777778v-509.72444444a182.04444445 182.04444445 0 0 0-182.04444445-182.04444444H257.13777778a182.04444445 182.04444445 0 0 0-182.04444445 182.04444444V602.4533333300001h72.81777778v-109.22666666H75.09333333v109.22666666h72.81777778v-509.72444444a109.22666667 109.22666667 0 0 1 109.22666667-109.22666667h509.72444444a109.22666667 109.22666667 0 0 1 109.22666667 109.22666667V602.4533333300001z m-582.54222222-127.43111111a36.40888889 36.40888889 0 0 0 72.81777778 0v-364.08888889a36.40888889 36.40888889 0 0 0-72.81777778 0v364.08888889z m364.08888888 0a36.40888889 36.40888889 0 0 0 72.81777778 0v-364.08888889a36.40888889 36.40888889 0 0 0-72.81777778 0v364.08888889zM257.13777778 675.27111111H184.32V748.08888889a109.22666667 109.22666667 0 0 0 109.22666667 109.22666666h436.90666666a109.22666667 109.22666667 0 0 0 109.22666667-109.22666666v-72.81777778h-72.81777778V711.6800000000001h72.81777778v-36.40888889h-72.81777778V748.08888889a36.40888889 36.40888889 0 0 1-36.40888889 36.40888889H293.54666667a36.40888889 36.40888889 0 0 1-36.40888889-36.40888889v-72.81777778z"  horiz-adv-x="1024" />

    
    <glyph glyph-name="xuanze" unicode="&#58930;" d="M872.6 314.9L566.4 425.3c-11.9 4.3-25-1.9-29.3-13.7-1.8-5-1.8-10.5 0-15.5l110.4-306.2c6.6-18.3 31.7-20.5 41.3-3.6l41.6 72.6c6.3 10.9 20.3 14.7 31.2 8.4 1.7-1 3.3-2.2 4.7-3.6L900 30.100000000000023c8.9-8.9 23.4-8.9 32.3 0 8.9 8.9 8.9 23.4 0 32.3L798.8 195.89999999999998c-8.9 8.9-8.9 23.4 0 32.3 1.4 1.4 3 2.7 4.8 3.7l72.6 41.6c16.9 9.7 14.7 34.7-3.6 41.4zM908.8 896H115.2C72.7 896 38.1 861.4 38.1 818.9v-869.8c0-42.5 34.6-77.1 77.1-77.1h444.9c14.5 0 26.3 11.8 26.3 26.3 0 16.2-13.2 29.5-29.5 29.5H112.2c-10 0-18.2 8.2-18.2 18.2V821.9c0 10 8.2 18.2 18.2 18.2h799.7c10 0 18.2-8.2 18.2-18.2v-363.6c0-16 13-29 29-29 14.8 0 26.8 12 26.8 26.8V818.9c0 42.5-34.6 77.1-77.1 77.1z"  horiz-adv-x="1024" />

    
    <glyph glyph-name="js" unicode="&#58912;" d="M707.072 247.552c-15.36-8.704-36.864-13.312-63.488-13.312-30.208 0-52.224 5.632-66.56 15.872-15.872 11.776-25.6 31.744-29.696 59.392h-59.392c2.56-46.592 19.456-80.384 50.176-101.888 25.088-17.408 60.416-26.112 105.472-26.112 46.592 0 82.944 9.728 108.544 28.16 25.6 18.944 38.4 45.056 38.4 77.824 0 33.792-15.872 59.904-47.616 78.848-14.336 8.192-46.08 20.48-95.744 35.84-33.792 10.752-54.784 18.432-62.464 22.528-17.408 9.216-25.6 22.016-25.6 37.376 0 17.408 7.168 30.208 22.528 37.888 12.288 6.656 29.696 9.728 52.736 9.728 26.624 0 47.104-4.608 60.416-14.848 13.312-9.728 23.04-26.112 28.16-48.64h59.392c-3.584 39.936-18.432 69.632-44.032 88.576-24.064 17.92-57.856 26.624-100.864 26.624-39.424 0-71.68-8.704-97.28-26.624-27.648-18.432-40.96-44.032-40.96-76.288s13.824-56.832 41.984-73.728c10.752-6.144 38.912-16.384 83.968-30.72 40.448-12.288 64-20.48 71.168-24.064 22.528-11.264 34.304-26.624 34.304-46.08 0-15.36-8.192-27.136-23.552-36.352zM884.864 672.16L557.984 861.44a101.088 101.088 0 0 1-101.056 0L130.24 672.128a101.12 101.12 0 0 1-50.24-87.2v-401.312c0-36.384 19.712-70.016 51.424-87.872l117.792-66.176c1.28-0.704 2.688-0.768 4.032-1.312 15.648-7.616 34.272-11.52 57.472-11.52 42.496 0 75.36 15.52 94.816 37.024 17.408 20.48 26.112 51.2 26.112 93.184V554.24h-59.904v-405.248c0-26.112-4.608-45.056-13.824-56.832-9.216-11.776-24.064-17.92-44.032-17.92-2.688 0-18.656 4.096-31.2 9.408l-0.16 0.032c-0.736 0.48-1.184 1.248-1.952 1.664l-117.76 66.176A36.96 36.96 0 0 0 144 183.648v401.28c0 13.088 7.04 25.28 18.336 31.84l326.656 189.28a36.8 36.8 0 0 0 36.896 0l326.88-189.28c11.328-6.592 18.368-18.784 18.368-31.872V182.4c0-12.864-6.88-24.96-17.92-31.552L537.472-37.824a36.8 36.8 0 0 0-36.896-0.512l-67.168 37.76a32 32 0 1 1-31.392-55.808l67.2-37.76a100.832 100.832 0 0 1 101.056 1.376l315.744 188.672a101.216 101.216 0 0 1 49.088 86.496V584.928a100.992 100.992 0 0 1-50.24 87.232z"  horiz-adv-x="1024" />

    
    <glyph glyph-name="css" unicode="&#58891;" d="M776.533333 140.544H598.903467c-14.421333 0-26.112-12.475733-26.112-27.869867v-168.618666h28.433066L776.533333 135.560533v4.983467zM776.533333 196.266667v88.183466c0 15.189333 11.4688 27.477333 25.6 27.477334s25.6-12.288 25.6-27.477334v-160.136533c0-7.2192-2.645333-14.1312-7.338666-19.285333L630.2208-102.7072a24.746667 24.746667 0 0 0-18.261333-8.226133H228.693333C163.669333-110.933333 110.933333-54.306133 110.933333 15.547733V752.469333C110.933333 822.306133 163.669333 878.933333 228.693333 878.933333h481.28C774.997333 878.933333 827.733333 822.306133 827.733333 752.452267v-48.930134c0-15.189333-11.4688-27.477333-25.6-27.477333s-25.6 12.288-25.6 27.477333V752.469333c0 39.4752-29.7984 71.492267-66.56 71.492267H228.693333c-36.7616 0-66.56-32.017067-66.56-71.509333v-736.887467c0-39.4752 29.7984-71.492267 66.56-71.492267H520.533333v168.618667C520.533333 158.839467 555.6224 196.266667 598.903467 196.266667H776.533333zM367.1552 614.4c27.306667 0 48.6912-7.150933 63.556267-21.4528 14.336-13.653333 20.8384-32.494933 20.002133-55.893333h-37.034667c-1.024 15.274667-6.0928 26.3168-15.479466 33.467733-9.045333 7.168-21.76 10.410667-38.007467 10.410667-24.388267 0-44.117333-8.1408-59.648-25.0368-14.199467-14.9504-23.637333-35.754667-28.672-62.395734-5.137067-27.306667-3.584-48.4352 4.693333-63.061333 9.079467-15.598933 26.402133-23.722667 51.7632-23.722667 16.554667 0 31.010133 4.232533 42.888534 12.032 12.6976 8.772267 23.005867 22.101333 30.8736 39.645867h37.034666c-10.325333-27.306667-26.333867-48.418133-48.401066-63.6928a117.162667 117.162667 0 0 0-68.386134-21.4528c-38.673067 0-65.28 12.3392-79.598933 36.4032-12.6464 20.7872-15.496533 48.7424-8.874667 83.848533 6.485333 34.440533 20.258133 62.72 41.540267 84.1728 24.149333 24.695467 54.698667 36.727467 91.7504 36.727467z m235.7248 0c27.306667 0 47.7184-5.5296 60.842667-16.896 13.994667-12.032 19.8656-30.890667 17.3568-56.234667h-37.717334c-0.546133 14.301867-4.7616 24.712533-12.049066 30.890667-7.2192 6.485333-19.6608 9.4208-36.573867 9.4208-14.626133 0-26.043733-1.962667-34.645333-6.178133-10.6496-4.881067-16.725333-13.0048-18.824534-24.064-1.8432-9.728 1.826133-17.8688 11.776-23.722667 4.386133-2.594133 16.7936-7.4752 36.9664-14.2848 29.696-9.762133 48.366933-17.5616 56.490667-22.766933 17.8688-12.014933 24.832-28.586667 20.7872-50.039467-3.925333-20.804267-15.189333-37.376-33.6896-49.408-18.466133-11.690667-42.7008-17.8688-72.277333-17.8688-28.603733 0-49.988267 5.5296-63.829334 16.571733-16.930133 13.653333-23.6032 35.106133-19.6608 64.682667h37.717334c-0.7168-17.5616 3.072-30.225067 11.7248-37.717333 7.8848-6.485333 21.179733-10.069333 40.362666-10.069334 16.896 0 31.095467 2.935467 41.8816 8.448 10.8544 5.853867 17.476267 13.329067 19.3024 23.074134 2.338133 12.356267-3.310933 22.101333-16.247466 29.252266-4.130133 2.286933-18.090667 7.4752-42.308267 15.274667-26.88 9.1136-43.52 15.616-49.6128 19.5072-15.872 10.717867-21.691733 26.333867-17.834667 46.7968 3.857067 20.48 15.36 36.727467 35.1232 48.4352 18.397867 11.3664 39.918933 16.896 64.938667 16.896z m228.266667 0c27.306667 0 47.701333-5.5296 60.842666-16.896 13.994667-12.032 19.848533-30.890667 17.339734-56.234667h-37.700267c-0.546133 14.301867-4.7616 24.712533-12.049067 30.890667-7.2192 6.485333-19.677867 9.4208-36.573866 9.4208-14.626133 0-26.043733-1.962667-34.645334-6.178133-10.666667-4.881067-16.7424-13.0048-18.824533-24.064-1.8432-9.728 1.826133-17.8688 11.776-23.722667 4.386133-2.594133 16.7936-7.4752 36.949333-14.2848 29.696-9.762133 48.366933-17.5616 56.490667-22.766933 17.885867-12.014933 24.832-28.586667 20.7872-50.039467-3.925333-20.804267-15.172267-37.376-33.6896-49.408-18.449067-11.690667-42.683733-17.8688-72.260267-17.8688-28.603733 0-50.005333 5.5296-63.829333 16.571733-16.930133 13.653333-23.620267 35.106133-19.6608 64.682667h37.700267c-0.7168-17.5616 3.072-30.225067 11.741866-37.717333 7.867733-6.485333 21.162667-10.069333 40.3456-10.069334 16.896 0 31.112533 2.935467 41.898667 8.448 10.8544 5.853867 17.4592 13.329067 19.3024 23.074134 2.321067 12.356267-3.310933 22.101333-16.264533 29.252266-4.113067 2.286933-18.090667 7.4752-42.2912 15.274667-26.88 9.1136-43.52 15.616-49.629867 19.5072-15.854933 10.717867-21.674667 26.333867-17.8176 46.7968 3.857067 20.48 15.36 36.727467 35.1232 48.4352 18.397867 11.3664 39.918933 16.896 64.938667 16.896z"  horiz-adv-x="1024" />

    
    <glyph glyph-name="HTML" unicode="&#60103;" d="M66.59792592 888.86992592l80.09955556-906.09588147L511.75727408-120.86992592000001l363.60343703 103.64397037L957.03798518 888.86992592H66.59792592z m741.40634075-850.26891851l-296.24699259-84.46862223-297.58198519 84.46862223-68.8128 778.17931851h732.78957036l-70.14779258-778.17931851zM231.65155555 703.18459259l2.06317037-29.4912 27.5493926-307.65511111h250.61451851v0.12136297h137.01878519l-13.83537777-143.81511112L510.78637037 188.72699259v-0.24272592h-0.9709037l-124.27567408 33.61754074-7.88859259 88.83768889h-110.4402963l13.71401482-175.61220741 228.89054815-63.10874074h2.06317036v0.48545185l227.79828149 62.74465185 2.06317037 19.78216297 25.72894814 293.94109629 3.88361482 29.4912H510.78637037v-0.24272593H363.81582222l-9.95176297 114.32391112h427.3189926l2.06317037 23.66577778 5.82542223 57.28331851L791.13481482 703.18459259H510.78637037z"  horiz-adv-x="1024" />

    
    <glyph glyph-name="wenbenkuang" unicode="&#58880;" d="M977.45123555 90.39872000000003H46.54876445c-16.31118222 0-29.12711111 12.81592889-29.12711112 29.12711111V648.47416889c0 16.31118222 12.81592889 29.12711111 29.12711112 29.12711111h930.9024711c16.31118222 0 29.12711111-12.81592889 29.12711112-29.12711111v-528.94833778c0-15.72864-13.39847111-29.12711111-29.12711112-29.12711111z m-901.77536 58.25422222h872.6482489V619.34705778H75.67587555v-470.69411556zM258.01159111 271.56935110999996c-16.31118222 0-29.12711111 12.81592889-29.12711111 29.12711111V468.46862222c0 16.31118222 12.81592889 29.12711111 29.12711111 29.12711111s29.12711111-12.81592889 29.12711111-29.12711111v-167.77216c0-16.31118222-13.39847111-29.12711111-29.12711111-29.12711111zM867.35075555 271.56935110999996H458.40611555c-16.31118222 0-29.12711111 12.81592889-29.1271111 29.12711111s12.81592889 29.12711111 29.1271111 29.12711111H867.35075555c16.31118222 0 29.12711111-12.81592889 29.12711112-29.12711111s-12.81592889-29.12711111-29.12711112-29.12711111z"  horiz-adv-x="1024" />

    
    <glyph glyph-name="zujian" unicode="&#58962;" d="M972.09863-120.986301H259.506849c-19.638356 0-35.068493 15.430137-35.068493 35.068493V127.29863c-8.416438-5.610959-18.235616-9.819178-28.054794-12.624657h-1.40274c-12.624658-4.208219-26.652055-5.610959-39.276712-5.610959-77.150685 0-138.871233 63.123288-138.871233 138.871233 0 77.150685 63.123288 138.871233 138.871233 138.871232 14.027397 0 28.054795-2.805479 42.082191-7.013698 1.40274 0 2.805479-1.40274 4.20822-1.40274 7.013699-2.805479 14.027397-5.610959 19.638356-8.416438l2.805479-1.40274V626.673973c0 19.638356 15.430137 35.068493 35.068493 35.068493h228.646576l-4.20822 8.416438c-7.013699 11.221918-12.624658 22.443836-15.430137 35.068493v1.40274c-4.208219 12.624658-5.610959 26.652055-5.610958 39.276712C462.90411 823.057534 526.027397 884.778082 601.775342 884.778082c77.150685 0 138.871233-63.123288 138.871233-138.871233 0-14.027397-2.805479-28.054795-7.013698-42.082191 0-1.40274-1.40274-2.805479-1.40274-4.20822-2.805479-7.013699-5.610959-14.027397-8.416438-19.638356l-7.013699-16.832877h255.29863c19.638356 0 35.068493-15.430137 35.068493-35.068493v-314.213698c0-11.221918-5.610959-22.443836-15.430137-29.457535-9.819178-7.013699-22.443836-7.013699-33.665753-2.805479L897.753425 308.252055c-1.40274 0-1.40274 1.40274-2.80548 1.40274-2.805479 1.40274-7.013699 4.208219-11.221918 5.610958h-1.402739c-7.013699 2.805479-14.027397 2.805479-21.041096 2.80548-37.873973 0-68.734247-30.860274-68.734247-68.734247s30.860274-68.734247 68.734247-68.734246c7.013699 0 14.027397 1.40274 19.638356 2.805479 7.013699 1.40274 12.624658 5.610959 18.235616 8.416439 1.40274 1.40274 2.805479 1.40274 4.20822 2.805479l53.304109 25.249315c11.221918 5.610959 23.846575 4.208219 33.665754-1.40274s16.832877-18.235616 16.832876-29.457534V-85.917808c0-19.638356-15.430137-35.068493-35.068493-35.068493z m-677.523288 70.136986h642.454795v182.356164h-1.40274c-11.221918-7.013699-22.443836-12.624658-35.068493-16.832876h-1.40274c-12.624658-4.208219-26.652055-5.610959-39.276712-5.610959-77.150685 0-138.871233 63.123288-138.871233 138.871233 0 77.150685 63.123288 138.871233 138.871233 138.871232 14.027397 0 28.054795-2.805479 42.082192-7.013698 1.40274 0 2.805479-1.40274 4.208219-1.40274 7.013699-2.805479 14.027397-5.610959 19.638356-8.416438l9.819178-4.208219v224.438356H662.093151c-11.221918 0-22.443836 5.610959-29.457535 15.430137-7.013699 9.819178-7.013699 22.443836-2.805479 33.665753l29.457534 67.331507c0 1.40274 1.40274 1.40274 1.40274 2.805479 1.40274 2.805479 4.208219 7.013699 5.610959 11.221918v1.40274c2.805479 7.013699 2.805479 14.027397 2.805479 21.041096 0 37.873973-30.860274 68.734247-68.734246 68.734246s-68.734247-30.860274-68.734247-68.734246c0-7.013699 1.40274-14.027397 2.80548-19.638356 1.40274-7.013699 5.610959-12.624658 8.416438-18.235617 1.40274-1.40274 1.40274-2.805479 2.805479-4.208219l28.054795-60.317808c5.610959-11.221918 4.208219-23.846575-1.40274-33.665754s-18.235616-16.832877-29.457534-16.832876H294.575342v-274.936987c0-11.221918-5.610959-22.443836-15.430137-29.457534-9.819178-7.013699-22.443836-7.013699-33.665753-2.805479L192.175342 306.849315c-1.40274 0-1.40274 1.40274-2.805479 1.40274-2.805479 1.40274-7.013699 4.208219-11.221918 5.610959h-1.40274c-7.013699 2.805479-14.027397 2.805479-21.041095 2.805479-37.873973 0-68.734247-30.860274-68.734247-68.734246s30.860274-68.734247 68.734247-68.734247c7.013699 0 14.027397 1.40274 19.638356 2.805479 7.013699 1.40274 12.624658 5.610959 18.235616 8.416439 1.40274 1.40274 2.805479 1.40274 4.208219 2.805479l46.290411 22.443836c11.221918 5.610959 23.846575 4.208219 33.665754-1.40274 9.819178-7.013699 16.832877-18.235616 16.832876-29.457534v-235.660274z"  horiz-adv-x="1024" />

    
    <glyph glyph-name="Structuresquarescontrol" unicode="&#58990;" d="M429.1454081 881.1026963h-372.82702223A41.53293027 41.53293027 0 0 1 14.8973037 839.68161413v-372.82702223a41.58264054 41.58264054 0 0 1 41.42108217-41.42108216h372.82702223a41.58264054 41.58264054 0 0 1 41.43350973 41.42108216v372.82702223A41.54535785 41.54535785 0 0 1 429.1454081 881.1026963zM387.72432592 508.27567408H97.75189561V798.24810439H387.72432592V508.27567408zM967.68161413 881.1026963h-372.82702223a41.54535785 41.54535785 0 0 1-41.43350973-41.42108217v-372.82702223a41.58264054 41.58264054 0 0 1 41.43350973-41.42108216h372.82702223A41.58264054 41.58264054 0 0 1 1009.1026963 466.8545919v372.82702223A41.53293027 41.53293027 0 0 1 967.68161413 881.1026963z m-41.43350974-372.82702222H636.27567408V798.24810439h289.97243031V508.27567408zM429.1454081 342.56649026h-372.82702223A41.53293027 41.53293027 0 0 1 14.8973037 301.14540810000005v-372.82702223A41.58264054 41.58264054 0 0 1 56.31838587-113.10269630000005h372.82702223a41.58264054 41.58264054 0 0 1 41.43350973 41.42108217v372.82702223a41.53293027 41.53293027 0 0 1-41.43350973 41.42108216z m-41.42108218-372.82702222H97.75189561V259.72432591999996H387.72432592v-289.98485788zM967.68161413 342.56649026h-372.82702223a41.53293027 41.53293027 0 0 1-41.43350973-41.42108216v-372.82702223A41.58264054 41.58264054 0 0 1 594.8545919-113.10269630000005h372.82702223A41.58264054 41.58264054 0 0 1 1009.1026963-71.68161412999996v372.82702223a41.53293027 41.53293027 0 0 1-41.42108217 41.42108216z m-41.43350974-372.82702222H636.27567408V259.72432591999996h289.97243031v-289.98485788z"  horiz-adv-x="1024" />

    
    <glyph glyph-name="banbenxinxi" unicode="&#58963;" d="M479.8236448 552.70968853a45.4656 45.4656 0 1 0 64.3527104-64.3527104 45.4656 45.4656 0 1 0-64.3527104 64.3527104zM512 429.51111147a45.51111147 45.51111147 0 0 0 45.51111147-45.51111147v-182.0444448a45.51111147 45.51111147 0 0 0-91.02222294 0v182.0444448a45.51111147 45.51111147 0 0 0 45.51111147 45.51111147z m0 364.08888853c-226.23573333 0-409.6-183.36426667-409.6-409.6s183.36426667-409.6 409.6-409.6 409.6 183.36426667 409.6 409.6-183.36426667 409.6-409.6 409.6z m0 91.02222187c276.48 0 500.62222187-224.14222187 500.62222187-500.62222187s-224.14222187-500.62222187-500.62222187-500.62222187S11.37777813 107.51999999999998 11.37777813 384 235.52 884.62222187 512 884.62222187z"  horiz-adv-x="1024" />

    
    <glyph glyph-name="xiaoguo" unicode="&#58933;" d="M263.72443307 890.70894827L320.01984 677.0177184 499.566736 612.3245152 320.79927573 545.5192917300001 267.0433216 331.2246272 210.72277227 544.8907136 31.17587627 609.5587744 209.94333547 676.3388544ZM638.30637653 828.7312L708.4304896 687.1001024 843.5243808 667.56391253 727.84096533 595.07634667 720.95175467 437.20280533 650.8276416 578.80875947 515.7337504 598.37009387 631.39202347 670.8325152ZM284.46749227 319.91023147L315.97179947 230.17449812999996 395.2480032 208.65200213000003 320.8495616 173.80366187000004 305.1351232 79.96960213 273.63081493 169.73047893 194.35461227 191.30326079999998 268.7530528 226.12645867000003ZM409.62985707 372.25817067l105.802176 105.802176c22.7796512 22.7796512 60.06687253 22.7796512 82.7962368 0l159.78441706-159.78441707-188.62355626-188.5984128L409.62985707 289.48707733000003C386.87534933 312.21644160000005 386.87534933 349.47852052999997 409.62985707 372.25817067L409.62985707 372.25817067zM794.84733333 281.46642772999996l-188.5984128-188.62355626 162.22329814-162.22329814c22.7796512-22.7796512 60.04172907-22.7796512 82.7962368 0l105.77703253 105.802176c22.7796512 22.7796512 22.7796512 60.04172907 0 82.7962368L794.84733333 281.46642772999996 794.84733333 281.46642772999996zM431.42892693 322.87711787l133.4093024-133.43444587 133.43444587 133.43444587-133.43444587 133.4093024L431.42892693 322.87711787z"  horiz-adv-x="1024" />

    
    <glyph glyph-name="49" unicode="&#58929;" d="M336.9076704 554.9723626699999m-61.21608747 0a59.82186667 59.82186667 0 1 1 122.43217387 0 59.82186667 59.82186667 0 1 1-122.43217387 0ZM453.4215872 21.387219200000004c-110.34133333 0-218.2911328 43.34124693-298.15922667 123.21589013C75.76866133 224.07497812999998 31.98643733 329.75985920000005 31.98643733 442.17181973c0 112.4185088 43.782224 218.1121216 123.27592427 297.59927254C234.7560608 819.26479253 340.43439253 863.04701653 452.85290133 863.04701653s218.0979328-43.782224 297.591632-123.27592426c79.49479147-79.48715093 123.2835648-185.17967253 123.2835648-297.59927254 0-112.4196-43.78877333-218.10448107-123.2835648-297.5905408-17.9348736-17.91959253-46.98803733-17.92723307-64.92291093 0.00654934-17.9348736 17.92723307-17.9348736 46.99677013 0 64.93055253 62.14279253 62.14279253 96.38289173 144.7680832 96.38289173 232.65344 0 87.89299733-34.24009813 170.51828693-96.38289173 232.6763616-128.2903968 128.2903968-337.04704427 128.2903968-465.33744213 0-62.15043413-62.15807467-96.37525013-144.78336427-96.37525014-232.6763616 0-87.8853568 34.22481707-170.50409707 96.37525014-232.63815787 83.30531093-83.30531093 205.7374848-115.80442453 319.4712832-84.79306133 24.4360064 6.64303147 49.7081216-7.74983893 56.37298346-32.22950613 6.66486187-24.46547733-7.75638827-49.70048107-32.2229568-56.36643414C527.38670507 26.221590399999968 490.26170133 21.387219200000004 453.4215872 21.387219200000004zM945.2427392-96.10688852999999c-11.74810133 0-23.4940192 4.48399147-32.46200107 13.4432416L698.6439552 131.45894507000003c-17.9348736 17.9348736-17.9348736 47.00331947 0 64.92946026 17.9348736 17.9348736 46.98803733 17.92723307 64.92291093 0.00764054l214.13678187-214.1215008c17.9348736-17.9348736 17.9348736-47.00331947 0-64.92946027C968.73566613-91.62180587 956.98974827-96.10688852999999 945.2427392-96.10688852999999z"  horiz-adv-x="1024" />

    
    <glyph glyph-name="jiazai" unicode="&#58946;" d="M71.037275 306.37718 343.25474 124.550429 293.661553 47.062008C354.738377 7.279939 426.716444-16.090533 504.085399-16.090533 673.24879-16.090533 817.384122 93.967217 874.652978 248.929126 894.693344 303.196407 926.172549 316.412297 953.425655 308.632095 917.541154 97.043458 733.862684-64.235198 512.059733-64.235198 291.033308-64.235198 107.832701 95.893601 71.037275 306.37718ZM954.396313 452.857026 680.356997 651.722569 723.842501 724.521962C663.527271 762.273114 593.027591 784.40413 517.361022 784.40413 343.971534 784.40413 196.745027 670.224815 141.641486 510.797877 131.800502 493.281223 103.188473 479.109607 75.382838 483.604503 120.749927 683.082308 298.843376 832.115732 512.059733 832.115732 736.087733 832.115732 921.169924 667.581637 954.396313 452.857026Z"  horiz-adv-x="1024" />

    
    <glyph glyph-name="shuffling-banner" unicode="&#59230;" d="M127.905952 61.601763c-42.886113 0-76.743571 33.857458-76.743571 75.238795V707.150625h844.931667c42.133725 0 76.743571-33.857458 76.743571-75.238795v-492.814108c0-13.542983 11.285819-24.828802 25.581191-24.828802s25.58119 11.285819 25.58119 24.828802V631.91183c0 69.219691-57.181484 125.648788-127.905952 125.648787H0V137.592946c0-69.219691 57.181484-125.648788 127.905952-125.648787h783.235855c14.295371 0 25.58119 11.285819 25.581191 24.828802 0 13.542983-11.285819 24.828802-25.581191 24.828802H127.905952zM564.290963 213.584129c19.562087 0 34.609846-15.800147 34.609845-34.609845 0-19.562087-15.800147-34.609846-34.609845-34.609846-19.562087 0-34.609846 15.800147-34.609846 34.609846s15.047759 34.609846 34.609846 34.609845zM457.451874 178.221896m-34.609846 0a34.609846 34.609846 0 1 1 69.219691 0 34.609846 34.609846 0 1 1-69.219691 0ZM351.365173 178.221896m-34.609846 0a34.609846 34.609846 0 1 1 69.219691 0 34.609846 34.609846 0 1 1-69.219691 0ZM672.634827 213.584129c19.562087 0 34.609846-15.800147 34.609846-34.609845 0-19.562087-15.800147-34.609846-34.609846-34.609846-19.562087 0-34.609846 15.800147-34.609845 34.609846-0.752388 18.809699 15.047759 34.609846 34.609845 34.609845z"  horiz-adv-x="1024" />

    
    <glyph glyph-name="lianxiangshuru" unicode="&#58996;" d="M20.88777955 645.33814992V153.41037037h1011.351552V645.33814992H20.88777955z m985.46725927-466.04348681H46.7720723V619.44414815h959.58296652v-440.14948504zM291.91554845 296.22059615c-12.06833303-10.26245215-23.68034133-17.50539378-34.84573393-21.71911585-11.16539259-4.22343111-23.1463443-6.33029215-35.93314607-6.33029215-21.11715555 0-37.35066548 5.15549867-48.69082075 15.47620503-11.34015525 10.32070637-17.01994192 23.50557867-17.01994192 39.54490785 0 9.41776592 2.14569718 18.0102637 6.42738252 25.79691142a53.23465008 53.23465008 0 0 0 16.83547022 18.73844147 79.44905008 79.44905008 0 0 0 23.4376154 10.67994075c6.39825541 1.68937245 16.04903822 3.32049067 28.96205749 4.89335466 26.30178133 3.12630992 45.68101925 6.87399822 58.10858667 11.21393778 0.11650845 4.46615703 0.1844717 7.30119585 0.1844717 8.51482548 0 13.26254459-3.07776475 22.6220563-9.23329423 28.05911704-8.33035378 7.35945008-20.69966697 11.03917511-37.10793955 11.03917512-15.32086045 0-26.64159763-2.67969422-33.94279348-8.04879172-7.30119585-5.37880652-12.69942045-14.87424475-16.19467377-28.51544178l-31.85535053 4.33993957c2.89329303 13.631488 7.66043022 24.641536 14.30141156 33.030144s16.23350992 14.84511763 28.77758577 19.36952888 27.09792237 6.78661689 43.62270342 6.78661689c16.40827259 0 29.74848948-1.93209837 40.00123258-5.79629511 10.26245215-3.86419675 17.79666489-8.71871525 22.63176534-14.57326459s8.2041363-13.24312652 10.13623466-22.17544059c1.08741215-5.54386015 1.63111822-15.56358637 1.63111823-30.04946963v-43.44794075c0-30.28248652 0.68934163-49.44812563 2.07773392-57.46779022 1.3883923-8.01966459 4.13604978-15.71893097 8.23326341-23.07838103h-34.03017481c-3.37874489 6.76719882-5.55356918 14.66064592-6.51476385 23.71917748z m-2.71853037 72.75952355c-11.82560711-4.82539141-29.56401778-8.93231408-53.215232-12.31105895-13.38876208-1.92238933-22.86478222-4.10692267-28.41835141-6.51476386-5.55356918-2.41755022-9.83525452-5.94193067-12.85476504-10.59255941a27.81639111 27.81639111 0 0 1-4.52441126-15.47620503c0-8.68958815 3.29136355-15.93252978 9.86438163-21.71911586s16.20438282-8.68958815 28.87467615-8.68958814c12.54407585 0 23.70946845 2.73794845 33.48646874 8.2332634s16.95197867 13.01010963 21.54435319 22.53467497c3.49525333 7.35945008 5.25258903 18.22386252 5.25258903 32.57381926v11.96153362zM381.87948563 272.5111277v37.10793955h37.10793955v-37.10793955h-37.10793955zM484.87295052 272.5111277v37.10793955h37.10793956v-37.10793955h-37.10793956zM587.86641541 272.5111277v37.10793955h37.09823051v-37.10793955h-37.09823051zM690.8598803 272.5111277v37.10793955h37.10793955v-37.10793955h-37.10793955zM822.68918518 575.75348148h20.22392415V257.78251852000005H822.68918518z"  horiz-adv-x="1024" />

    
    <glyph glyph-name="motaikuang" unicode="&#58999;" d="M995.81952 854.08426667H42.85326222c-22.56440889 0-40.02247111-17.16679111-40.02247111-38.86648889v-834.63736889c0-21.42663111 17.45806222-39.44903111 40.02247111-39.44903111h952.96625778c21.98186667 0 40.01336889 18.0224 40.01336889 39.44903111V815.21777778c0.00910222 21.69969778-18.03150222 38.86648889-40.01336889 38.86648889z m-3.84113778-859.20426667H52.92942222V562.74033778h939.04896v-567.86033778z m0 615.75623111H52.92942222V808.00881778h939.04896v-197.37258667zM823.59637333 460.21290667H634.98012445c-11.65994667 0-21.56316445-9.88501333-21.56316445-22.06378667v-188.63445333c0-11.65084445 9.90321778-21.05344 21.56316445-21.05344h188.61624888c11.69635555 0 21.56316445 9.39349333 21.56316445 21.05344V438.14912c0.00910222 12.17877333-9.85770667 22.06378667-21.56316445 22.06378667z m-21.29009778-189.15328H656.27932445V417.11388445h146.0269511v-146.05425778zM450.92408889 473.41112889H208.60472889c-12.95246222 0-23.69308445-10.99548445-23.69308444-24.52138667 0-12.37902222 10.74062222-23.37450667 23.69308444-23.37450667H450.92408889a23.58385778 23.58385778 0 0 1 23.69308444 23.37450667c0 13.52590222-10.15808 24.52138667-23.69308444 24.52138667zM450.92408889 368.28046222H208.60472889c-12.95246222 0-23.69308445-10.70421333-23.69308444-23.94794667 0-12.96156445 10.74062222-23.94794667 23.69308444-23.94794666H450.92408889c13.53500445 0 23.69308445 10.98638222 23.69308444 23.94794666 0 13.25283555-10.15808 23.94794667-23.69308444 23.94794667zM450.92408889 263.20440888999997H208.60472889c-12.95246222 0-23.69308445-10.98638222-23.69308444-23.94794667s10.74062222-23.39271111 23.69308444-23.39271111H450.92408889c13.53500445 0 23.69308445 10.43114667 23.69308444 23.39271111s-10.15808 23.94794667-23.69308444 23.94794667zM834.99235555 158.09194666999997H212.51868445c-15.09148445 0-27.59793778-10.42204445-27.59793778-23.37450667 0-12.97976889 12.51555555-23.94794667 27.59793778-23.94794667h622.48277333c15.13699555 0 27.90741333 10.96817778 27.90741333 23.94794667 0 12.95246222-12.78862222 23.37450667-27.91651556 23.37450667zM912.02446222 741.48067555c-22.27313778 0-40.01336889-17.48536889-40.01336889-38.89379555 0-22.53710222 17.74023111-40.02247111 40.01336889-40.02247111 21.99096889 0 39.43992889 17.48536889 39.43992889 40.02247111 0 21.40842667-17.45806222 38.89379555-39.43992889 38.89379555zM805.12796445 741.48067555c-21.69059555 0-39.43992889-17.48536889-39.4399289-38.89379555 0-22.53710222 17.74933333-40.02247111 39.4399289-40.02247111 22.28224 0 40.02247111 17.48536889 40.0224711 40.02247111 0.00910222 21.40842667-17.74933333 38.89379555-40.0224711 38.89379555zM698.81400889 741.48067555c-21.98186667 0-39.43082667-17.48536889-39.43082667-38.89379555 0-22.53710222 17.44896-40.02247111 39.43082667-40.02247111a39.82222222 39.82222222 0 0 1 40.02247111 40.02247111c0.00910222 21.40842667-18.03150222 38.89379555-40.02247111 38.89379555z"  horiz-adv-x="1024" />

    
    <glyph glyph-name="date" unicode="&#58922;" d="M947.2 832h-140.8V857.6c0 19.2-19.2 38.4-38.4 38.4s-38.4-19.2-38.4-38.4V832H300.8V857.6c0 19.2-19.2 38.4-38.4 38.4s-38.4-19.2-38.4-38.4V832H76.8C38.4 832 0 800 0 755.2v-800c0-44.8 38.4-83.2 76.8-83.2h864c44.8 0 76.8 38.4 76.8 76.8V755.2c6.4 44.8-32 76.8-70.4 76.8z m0-883.2H76.8v640h864v-640z m0 723.2H76.8V755.2h140.8v-6.4c0-19.2 19.2-38.4 38.4-38.4s38.4 19.2 38.4 38.4v6.4h422.4v-6.4c0-19.2 19.2-38.4 38.4-38.4s38.4 19.2 38.4 38.4v6.4h140.8v-83.2zM262.4 320h76.8c25.6 0 44.8 19.2 44.8 38.4s-19.2 44.8-38.4 44.8H262.4c-19.2 0-38.4-19.2-38.4-44.8s19.2-38.4 38.4-38.4zM473.6 320h76.8c25.6 0 38.4 19.2 38.4 38.4s-12.8 44.8-38.4 44.8H473.6c-25.6 0-38.4-19.2-38.4-44.8s12.8-38.4 38.4-38.4zM678.4 320h76.8c19.2 0 38.4 19.2 38.4 38.4s-19.2 38.4-38.4 38.4h-76.8c-19.2 6.4-38.4-12.8-38.4-38.4s19.2-38.4 38.4-38.4zM262.4 108.79999999999995h76.8c25.6 0 44.8 19.2 44.8 44.8s-19.2 38.4-38.4 38.4H262.4c-19.2 0-38.4-19.2-38.4-38.4s19.2-44.8 38.4-44.8zM473.6 108.79999999999995h76.8c19.2 0 38.4 19.2 38.4 38.4S576 192 550.4 192H473.6c-19.2 0-38.4-19.2-38.4-38.4s12.8-44.8 38.4-44.8z"  horiz-adv-x="1024" />

    
    <glyph glyph-name="Icon_gundongchakan" unicode="&#58928;" d="M867.56182757 845.67087229c7.65071955 0 14.12165522-6.23855401 14.12165521-13.62114084v-896.11733842c0-7.48983991-6.32793156-13.58538981-14.12165521-13.58538982H156.43817243c-7.65071955 0-14.12165522 6.23855401-14.12165521 13.62114086V832.08548245c0 7.48983991 6.32793156 13.58538981 14.12165521 13.58538984h711.12365514m0 57.20164137H156.43817243c-39.41550599 0-71.32329655-31.69328441-71.32329657-70.78703121v-896.11733838c0-38.80773855 31.94354159-70.82278219 71.32329657-70.82278221H867.54395205c39.41550599 0 71.32329655 31.69328441 71.32329657 70.78703117V832.04973145c0.01787552 38.80773855-31.92566609 70.82278219-71.30542105 70.82278221zM512.05362654 710.74650075c6.27430503 0 12.54861008-2.39531873 17.23199446-7.09657864l139.41112529-139.41112531c4.61188234-4.61188234 7.2038317-10.86831185 7.18595622-17.37499855-0.01787552-6.52456222-2.62770038-12.76311621-7.25745825-17.35712304-9.59915043-9.52764838-25.09722014-9.5633994-34.73212163-0.07150205l-121.92887365 121.92887366-121.92887365-121.92887366a24.50554066 24.50554066 0 0 0-34.74999713 0.07150205c-9.59915043 9.59915043-9.47402183 25.36535285-0.07150207 34.71424608l139.41112531 139.44687633c4.5761313 4.59400683 10.79680982 7.18595619 17.28562099 7.1859562l0.14300411-0.10725307zM512.05362654 57.253499250000004c6.27430503 0 12.54861008 2.39531873 17.23199446 7.09657864l139.41112529 139.41112531c4.61188234 4.61188234 7.2038317 10.86831185 7.18595622 17.37499855-0.01787552 6.52456222-2.62770038 12.76311621-7.25745825 17.35712304-9.59915043 9.52764838-25.09722014 9.5633994-34.73212163 0.07150205l-121.92887365-121.92887366-121.92887365 121.92887366a24.50554066 24.50554066 0 0 1-34.74999713-0.07150205c-9.59915043-9.59915043-9.47402183-25.36535285-0.07150207-34.71424608l139.41112531-139.44687633c4.5761313-4.59400683 10.79680982-7.18595619 17.28562099-7.1859562l0.14300411 0.10725307z"  horiz-adv-x="1024" />

    
    <glyph glyph-name="banner" unicode="&#58906;" d="M826.49433333 743.226H223.65633333c-28.904 0-49.549-20.645-49.549-49.549V86.71000000000004c0-28.904 20.645-49.549 49.549-49.549H830.62333333c28.904 0 49.549 20.645 49.549 49.549V689.548c0 28.904-24.774 53.678-53.678 53.678zM223.65633333 82.58000000000004c0 4.129 0 4.129 0 0z m602.838 4.129L632.43033333 293.15999999999997l-94.968-82.58-144.516 136.258L248.43033333 210.58000000000004l-20.645-24.775V689.548h606.967V86.71000000000004zM669.59133333 388.129c53.677 0 94.968 41.29 94.968 94.968 0 53.677-41.29 94.968-94.968 94.968-53.677 0-94.968-41.29-94.968-94.968 0-49.549 41.29-94.968 94.968-94.968zM141.07533333 623.4839999999999v49.548H79.13933333c-28.903 0-49.548-20.645-49.548-49.548v-466.58c0-28.904 20.645-49.55 49.548-49.55h61.936v49.55H79.13933333v466.58h61.936z m763.87-466.58v-49.55h66.065c28.904 0 49.549 20.646 49.549 49.55v466.58c0 28.903-20.645 49.548-49.549 49.548h-61.935v-49.548h61.935v-466.58h-66.064z"  horiz-adv-x="1032" />

    
    <glyph glyph-name="35zhage" unicode="&#58920;" d="M894.63466667 679.70844445H736.02844445c-6.25777778 0-11.264-5.00622222-11.264-11.264v-568.54755556c0-6.82666667 5.46133333-12.288 12.288-12.288h172.60088888c30.72 0 27.53422222 8.76088889 27.53422222 32.768V637.49688889c0 42.32533333-2.95822222 42.32533333-42.55288888 42.21155556z m-273.18044445 0.11377777H396.288c-6.25777778 0-11.37777778-5.12-11.37777778-11.37777777v-570.25422223c0-5.80266667 4.66488889-10.46755555 10.46755556-10.46755555h231.99288889c6.82666667 0 12.51555555 5.57511111 12.51555555 12.51555555V665.94133333c-0.11377778 10.35377778-1.82044445 13.88088889-18.432 13.88088889zM299.91822222 109.11288889000002V666.8515555500001c0 7.168-5.80266667 12.97066667-12.97066667 12.97066667H99.89688889c-6.82666667 0-12.40177778-5.57511111-12.40177778-12.40177777v-564.7928889c0-8.192 6.71288889-15.01866667 15.01866667-15.01866666h172.48711111c6.59911111 0 15.36-2.16177778 21.73155556 3.072 3.64088889 2.95822222 3.18577778 8.87466667 3.18577777 18.432zM129.93422222 764.35911111h764.70044445c35.15733333 0 75.66222222-1.93422222 100.57955555-26.624 24.91733333-24.80355555 26.85155555-65.19466667 26.85155556-100.23822222v-507.56266667c0-35.04355555-1.93422222-75.43466667-26.85155556-100.23822222-24.91733333-24.80355555-65.42222222-26.624-100.57955555-26.624H129.93422222c-35.15733333 0-73.61422222 0.68266667-98.53155555 25.37244445-24.91733333 24.80355555-28.89955555 66.44622222-28.89955556 101.48977777V637.49688889c0 114.11911111 42.55288889 126.86222222 127.43111111 126.86222222z"  horiz-adv-x="1024" />

    
    <glyph glyph-name="danxuankuangzu" unicode="&#58949;" d="M512-113.10269630000005c-274.86283852 0-497.1026963 222.22772148-497.1026963 497.1026963 0 274.86283852 222.23985778 497.1026963 497.1026963 497.1026963 274.86283852 0 497.1026963-222.23985778 497.1026963-497.1026963 0-274.87497482-222.22772148-497.1026963-497.1026963-497.1026963z m0 935.72058075c-239.78894222 0-438.61788445-198.84107852-438.61788445-438.61788445 0-239.77680592 198.84107852-438.61788445 438.61788445-438.61788445 245.62650075 0 438.61788445 198.84107852 438.61788445 438.61788445 0 239.77680592-192.9913837 438.61788445-438.61788445 438.61788445z m0 0M319.0086163 384c0-68.94629925 36.77297778-132.67399111 96.49569185-167.14107259 59.71057778-34.47921778 133.28080592-34.47921778 193.00352 0 59.71057778 34.47921778 96.49569185 98.19477333 96.49569185 167.14107259 0 68.95843555-36.77297778 132.67399111-96.49569185 167.15320889-59.71057778 34.47921778-133.28080592 34.47921778-193.00352 0-59.72271408-34.47921778-96.50782815-98.20690963-96.49569185-167.15320889z m0 0"  horiz-adv-x="1024" />

    
    <glyph glyph-name="shenglve" unicode="&#58883;" d="M54.99562667 315.35710776999997a97.09036999 97.09036999 0 1 1 137.28578332 137.28578446 97.09036999 97.09036999 0 0 1-137.28578332-137.28578446zM443.35710777 315.35710776999997a97.09036999 97.09036999 0 1 1 137.28578446 137.28578446 97.09036999 97.09036999 0 0 1-137.28578446-137.28578446zM831.71859001 315.35710776999997a97.09036999 97.09036999 0 1 1 137.28578332 137.28578446 97.09036999 97.09036999 0 0 1-137.28578332-137.28578446z"  horiz-adv-x="1024" />

    
    <glyph glyph-name="fenyeqi" unicode="&#59142;" d="M892.68719348 873.45496187a108.76776977 108.76776977 0 0 0 108.76776839-108.76776839v-761.37438696a108.76776977 108.76776977 0 0 0-108.76776839-108.76776839H131.31280652a108.76776977 108.76776977 0 0 0-108.76776839 108.76776839V764.68719348a108.76776977 108.76776977 0 0 0 108.76776839 108.76776839h761.37438696z m-407.87913626-54.38388418H131.31280652a54.38388418 54.38388418 0 0 1-54.00319743-48.02096968L76.92892231 764.68719348v-761.37438696a54.38388418 54.38388418 0 0 1 48.02096968-54.00319743L131.31280652-51.07107769000004h353.4952507V819.07107769zM892.68719348 819.07107769h-353.4952507v-870.14215538H892.68719348a54.38388418 54.38388418 0 0 1 54.00319743 48.02096968L947.07107769 3.312806519999981V764.68719348a54.38388418 54.38388418 0 0 1-48.02096968 54.00319743L892.68719348 819.07107769z m-527.41491405-308.68292981a27.19194278 27.19194278 0 0 0 3.15426437-34.69691761l-3.15426437-3.80687319-86.74229676-86.63352794 89.3527225-89.40710691a27.19194278 27.19194278 0 0 0 3.09988133-34.69691761l-3.09988133-3.75248878a27.19194278 27.19194278 0 0 0-34.69691762-3.15426436l-3.80687182 3.15426436-108.55023486 108.55023486a27.19194278 27.19194278 0 0 0-3.09988132 34.6969176l3.09988132 3.80687183 105.99419218 105.93980775a27.19194278 27.19194278 0 0 0 38.44940638 0z m293.67297741 0a27.19194278 27.19194278 0 0 0 38.50378942 0l105.93980777-105.99419079 3.15426572-3.75248879a27.19194278 27.19194278 0 0 0-3.15426572-34.6969176l-108.55023349-108.55023486-3.80687181-3.15426436a27.19194278 27.19194278 0 0 0-34.64253458 3.15426436l-3.15426573 3.80687182a27.19194278 27.19194278 0 0 0 3.15426573 34.64253457l89.29833808 89.40710691-86.74229539 86.63352794-3.09988133 3.80687319a27.19194278 27.19194278 0 0 0 3.09988133 34.69691761z"  horiz-adv-x="1024" />

    
    <glyph glyph-name="xuanxiangka" unicode="&#59145;" d="M403.44976652 873.45496187a54.38388418 54.38388418 0 0 0 54.00319743-48.02096968l0.38068676-6.3629145v-163.15165398a54.38388418 54.38388418 0 0 1 47.96658664-54.00319742l6.36291451-0.38068676H892.68719348a108.76776977 108.76776977 0 0 0 108.76776839-108.76776976v-489.45496325a108.76776977 108.76776977 0 0 0-108.76776839-108.76776839H131.31280652a108.76776977 108.76776977 0 0 0-108.76776839 108.76776839V764.68719348a108.76776977 108.76776977 0 0 0 108.76776839 108.76776839h272.13696z m-0.05438442-54.38388418H131.31280652a54.38388418 54.38388418 0 0 1-54.00319743-48.02096968L76.92892231 764.68719348v-761.37438696a54.38388418 54.38388418 0 0 1 48.02096968-54.00319743L131.31280652-51.07107769000004h761.37438696a54.38388418 54.38388418 0 0 1 54.00319743 48.02096968L947.07107769 3.312806519999981v489.45496325a54.38388418 54.38388418 0 0 1-48.02096968 54.00319742L892.68719348 547.1516539500001l-383.56953991 0.10876746-9.57156328 0.59822305a108.76776977 108.76776977 0 0 0-95.77002142 99.41374139l-0.38068677 8.70142229V819.07107769zM947.07107769 873.45496187a54.38388418 54.38388418 0 0 0 54.38388418-54.38388418v-108.76776979a54.38388418 54.38388418 0 0 0-54.38388418-54.38388419h-380.68719351a54.38388418 54.38388418 0 0 0-54.38388418 54.38388419V819.07107769a54.38388418 54.38388418 0 0 0 54.38388418 54.38388418h380.68719351z m0-54.38388418h-380.68719351v-108.76776979h380.68719351V819.07107769z"  horiz-adv-x="1024" />

    
    <glyph glyph-name="textarea" unicode="&#58890;" d="M948.90666667 784.49777778H75.09333333c-40.04977778 0-72.81777778-32.768-72.81777778-72.81777778v-655.36c0-40.04977778 32.768-72.81777778 72.81777778-72.81777778h873.81333334c40.04977778 0 72.81777778 32.768 72.81777778 72.81777778V711.6800000000001c0 40.04977778-32.768 72.81777778-72.81777778 72.81777778z m0-691.76888889c0-18.20444445-14.56355555-36.40888889-36.40888889-36.40888889H111.50222222c-21.84533333 0-36.40888889 14.56355555-36.40888889 36.40888889V675.27111111c0 18.20444445 14.56355555 36.40888889 36.40888889 36.40888889h800.99555556c21.84533333 0 36.40888889-14.56355555 36.40888889-36.40888889v-582.54222222zM184.32 638.8622222199999c-21.84533333 0-36.40888889-14.56355555-36.40888889-36.40888889v-291.27111111c0-18.20444445 14.56355555-36.40888889 36.40888889-36.40888889s36.40888889 14.56355555 36.40888889 36.40888889V602.4533333300001c0 18.20444445-14.56355555 36.40888889-36.40888889 36.40888889z m691.76888889-546.13333333c21.84533333 0 36.40888889 14.56355555 36.40888889 36.40888889V274.77333333L730.45333333 92.72888889000001h145.63555556z"  horiz-adv-x="1024" />

    
    <glyph glyph-name="icon_wangye" unicode="&#60300;" d="M948.90666667 893.72444445H75.09333333a72.81777778 72.81777778 0 0 1-72.81777778-72.81777778v-873.81333334a72.81777778 72.81777778 0 0 1 72.81777778-72.81777778h873.81333334a72.81777778 72.81777778 0 0 1 72.81777778 72.81777778V820.90666667a72.81777778 72.81777778 0 0 1-72.81777778 72.81777778zM75.09333333 820.90666667h873.81333334v-218.45333334H75.09333333V820.90666667z m873.81333334-873.81333334H75.09333333V529.6355555499999h873.81333334v-582.54222222zM220.72888889 311.18222221999997h582.54222222a36.40888889 36.40888889 0 0 1 0 72.81777778H220.72888889a36.40888889 36.40888889 0 0 1 0-72.81777778zM220.72888889 129.13777777999996h582.54222222a36.40888889 36.40888889 0 0 1 0 72.81777777H220.72888889a36.40888889 36.40888889 0 0 1 0-72.81777777zM803.27111111 748.08888889h-72.81777778a36.40888889 36.40888889 0 0 1 0-72.81777778h72.81777778a36.40888889 36.40888889 0 0 1 0 72.81777778z"  horiz-adv-x="1024" />

    
    <glyph glyph-name="biaodanzujian-shurukuang" unicode="&#60308;" d="M643.54986667 145.06666667000002a34.13333333 34.13333333 0 0 1-34.13333334 34.13333333H68.26666667V554.66666667h541.01333333a34.13333333 34.13333333 0 1 1 0 68.26666666H34.13333333a34.13333333 34.13333333 0 0 1-34.13333333-34.13333333v-443.73333333a34.13333333 34.13333333 0 0 1 34.13333333-34.13333334h575.2832a34.13333333 34.13333333 0 0 1 34.13333334 34.13333334zM989.86666667 622.93333333h-99.1232a34.13333333 34.13333333 0 1 1 0-68.26666666H955.73333333v-375.46666667h-64.3072a34.13333333 34.13333333 0 1 1 0-68.26666667H989.86666667a34.13333333 34.13333333 0 0 1 34.13333333 34.13333334V588.8a34.13333333 34.13333333 0 0 1-34.13333333 34.13333333zM854.05013333 25.600000000000023H785.06666667v682.66666667h68.57386666a34.13333333 34.13333333 0 1 1 0 68.26666666H647.85066667a34.13333333 34.13333333 0 1 1 0-68.26666666H716.8v-682.66666667h-68.94933333a34.13333333 34.13333333 0 1 1 0-68.26666667h206.16533333a34.13333333 34.13333333 0 1 1 0.03413333 68.26666667z"  horiz-adv-x="1024" />

    
    <glyph glyph-name="biaodanzujian-xialakuang" unicode="&#60309;" d="M989.86666667 793.6H34.13333333a34.13333333 34.13333333 0 0 1-34.13333333-34.13333333v-443.73333334a34.13333333 34.13333333 0 0 1 34.13333333-34.13333333h955.73333334a34.13333333 34.13333333 0 0 1 34.13333333 34.13333333V759.46666667a34.13333333 34.13333333 0 0 1-34.13333333 34.13333333z m-34.13333334-443.73333333H68.26666667V725.33333333h887.46666666v-375.46666666zM921.6 239.71839999999997a34.13333333 34.13333333 0 0 1-34.13333333-34.13333333V42.66666667000004H136.53333333v162.9184a34.13333333 34.13333333 0 1 1-68.26666666 0V8.533333330000005a34.13333333 34.13333333 0 0 1 34.13333333-34.13333333h819.2a34.13333333 34.13333333 0 0 1 34.13333333 34.13333333v197.05173334a34.13333333 34.13333333 0 0 1-34.13333333 34.13333333zM697.51466667 428.40746667a34.03093333 34.03093333 0 0 1 48.77653333 0l131.44746667 134.41706666a34.0992 34.0992 0 1 1-48.81066667 47.7184l-107.04213333-109.4656-107.07626667 109.4656a34.13333333 34.13333333 0 0 1-48.81066667-47.7184l131.51573334-134.41706666z"  horiz-adv-x="1024" />

    
    <glyph glyph-name="biaodanzujian-anniu" unicode="&#60310;" d="M989.86666667 793.6H34.13333333a34.13333333 34.13333333 0 0 1-34.13333333-34.13333333v-614.4a34.13333333 34.13333333 0 0 1 34.13333333-34.13333334h283.51146667a34.13333333 34.13333333 0 1 1 0 68.26666667H68.26666667V725.33333333h887.46666666v-546.13333333h-72.73813333a34.13333333 34.13333333 0 1 1 0-68.26666667H989.86666667a34.13333333 34.13333333 0 0 1 34.13333333 34.13333334V759.46666667a34.13333333 34.13333333 0 0 1-34.13333333 34.13333333zM606.6176 264.3968a34.13333333 34.13333333 0 0 1-47.37706667 1.70666667l-65.91146666-59.0848-13.4144 255.82933333 253.2352-30.17386667-51.57546667-48.09386666a34.13333333 34.13333333 0 1 1 46.52373333-49.93706667l105.3696 98.26986667a34.13333333 34.13333333 0 0 1-19.21706666 58.88l-366.52373334 43.65653333a34.13333333 34.13333333 0 0 1-38.0928-35.66933333l19.2512-367.54773334a34.13333333 34.13333333 0 0 1 56.86613334-23.58613333l94.54933333 84.71893333 205.38026667-212.95786666a34.0992 34.0992 0 1 1 49.11786666 47.37706666l-228.18133333 236.61226667z"  horiz-adv-x="1024" />

    
    <glyph glyph-name="xingzhuang-tupian" unicode="&#60312;" d="M985.31555555-52.90666667000005H38.68444445a36.40888889 36.40888889 0 0 0-36.4088889 36.40888889V784.49777778a36.40888889 36.40888889 0 0 0 36.4088889 36.40888889h946.6311111a36.40888889 36.40888889 0 0 0 36.4088889-36.40888889v-132.96526223a36.40888889 36.40888889 0 1 0-72.81777778 0V748.08888889H75.09333333v-728.17777778h873.81333334V433.44327111l-234.76451556-278.45518222a36.37248 36.37248 0 0 0-51.08167111-4.55111111l-223.07726222 185.17560889-221.47527111-205.05486222a36.33607111 36.33607111 0 1 0-49.44327112 53.41184l244.88618667 226.75456a36.44529778 36.44529778 0 0 0 47.98691556 1.31072l219.83687111-182.48135112 275.72451556 327.06104889a36.55452445 36.55452445 0 0 0 40.30464 10.74062223c14.34510222-5.24288 23.92064-18.93262222 23.92064-34.22435556V-16.49777777999998a36.40888889 36.40888889 0 0 0-36.4088889-36.40888889zM275.34222222 420.40888889C205.07306667 420.40888889 147.91111111 477.57084445 147.91111111 547.8399999999999S205.07306667 675.27111111 275.34222222 675.27111111 402.77333333 618.10915555 402.77333333 547.8399999999999 345.61137778 420.40888889 275.34222222 420.40888889z m0 182.04444444c-30.11015111 0-54.61333333-24.50318222-54.61333333-54.61333333S245.23207111 493.22666667 275.34222222 493.22666667s54.61333333 24.50318222 54.61333333 54.61333333-24.50318222 54.61333333-54.61333333 54.61333333z"  horiz-adv-x="1024" />

    
    <glyph glyph-name="kongjianyixuan" unicode="&#60400;" d="M948.90666667 893.72444445H75.09333333c-40.15900445 0-72.81777778-32.65877333-72.81777778-72.81777778v-873.81333334c0-40.15900445 32.65877333-72.81777778 72.81777778-72.81777778h873.81333334c40.15900445 0 72.81777778 32.65877333 72.81777778 72.81777778V820.90666667c0 40.15900445-32.65877333 72.81777778-72.81777778 72.81777778zM75.09333333-52.90666667000005V820.90666667h873.81333334l0.07281778-873.81333334H75.09333333zM776.69262222 616.07025778l-353.12981333-376.94122667-179.42300444 150.7328a36.40888889 36.40888889 0 0 1-46.85824-55.77841778l205.81944888-172.94222222a36.40888889 36.40888889 0 0 1 49.98940445 2.98552889L829.8496 566.2993066700001a36.40888889 36.40888889 0 1 1-53.15697778 49.77095111z"  horiz-adv-x="1024" />

    
    <glyph glyph-name="yunduanshangchuan" unicode="&#60445;" d="M827.93813333 650.0352a341.504 341.504 0 0 1-631.84213333 0A254.49813333 254.49813333 0 0 1 0 401.06666667C0 259.8912 114.82453333 145.06666667000002 256 145.06666667000002h97.5872a34.13333333 34.13333333 0 1 1 0 68.26666666H256A187.93813333 187.93813333 0 0 0 68.26666667 401.06666667a186.70933333 186.70933333 0 0 0 158.37866666 185.48053333l20.30933334 3.1744 6.656 19.456C291.46453333 719.49653333 395.29813333 793.6 512 793.6a273.06666667 273.06666667 0 0 0 258.3552-184.4224l6.69013333-19.456 20.30933334-3.1744A186.70933333 186.70933333 0 0 0 955.73333333 401.06666667c0-103.49226667-84.24106667-187.73333333-187.73333333-187.73333334h-103.76533333a34.13333333 34.13333333 0 1 1 0-68.26666666h103.76533333c141.17546667 0 256 114.82453333 256 256a254.49813333 254.49813333 0 0 1-196.06186667 248.96853333zM658.97813333 322.08213333000003a34.13333333 34.13333333 0 1 1 43.24693334 52.8384l-168.58453334 138.0352a34.13333333 34.13333333 0 0 1-43.28106666 0l-169.64266667-138.92266666a34.16746667 34.16746667 0 0 1 21.6064-60.55253334 33.86026667 33.86026667 0 0 1 21.6064 7.74826667L477.86666667 414.44693333V-42.66666667000004a34.13333333 34.13333333 0 0 1 68.26666666 0V414.44693333l112.8448-92.3648z"  horiz-adv-x="1024" />

    
    <glyph glyph-name="hanshu" unicode="&#60502;" d="M92.02346667 732.7971555500001c-14.7456 0-27.45230222-5.31569778-38.04728889-15.91068444-10.63139555-10.63139555-15.94709333-23.30168889-15.94709333-38.04728889s5.31569778-27.45230222 15.94709333-38.08369777c10.59498667-10.63139555 23.30168889-15.91068445 38.04728889-15.91068445 14.7456 0 27.45230222 5.31569778 38.04728888 15.94709333 10.63139555 10.63139555 15.94709333 23.30168889 15.94709334 38.04728889s-5.31569778 27.41589333-15.94709334 38.04728889a51.77344 51.77344 0 0 1-38.04728888 15.91068444zM92.02346667 549.25994667c-11.86929778 0-22.02737778-4.22343111-30.51064889-12.67029334a41.61536 41.61536 0 0 1-12.67029333-30.51064888v-518.28053334c0-11.86929778 4.22343111-22.02737778 12.67029333-30.51064889 8.44686222-8.44686222 18.60494222-12.67029333 30.51064889-12.67029333s22.02737778 4.22343111 30.51064888 12.67029333c8.44686222 8.44686222 12.67029333 18.60494222 12.67029334 30.51064889V506.07900445c0 11.86929778-4.22343111 22.02737778-12.67029334 30.51064888a41.57895111 41.57895111 0 0 1-30.51064888 12.67029334zM552.01336889 808.38200889c-172.76017778 0-259.12206222-86.39829333-259.12206222-259.12206222v-32.40391112H249.67395555c-11.86929778 0-22.02737778-4.22343111-30.51064888-12.67029333-8.44686222-8.44686222-12.67029333-18.64135111-12.67029334-30.51064889s4.22343111-22.02737778 12.67029334-30.51064888c8.44686222-8.44686222 18.64135111-12.67029333 30.51064888-12.67029334h43.18094223v-442.69568c0-11.86929778 4.22343111-22.02737778 12.70670222-30.51064889 8.44686222-8.44686222 18.60494222-12.67029333 30.51064889-12.67029333 11.86929778 0 22.02737778 4.22343111 30.51064889 12.67029333 8.44686222 8.44686222 12.67029333 18.60494222 12.67029333 30.51064889V430.49415111h130.12536889c11.86929778 0 22.02737778 4.22343111 30.51064889 12.67029334 8.44686222 8.44686222 12.67029333 18.64135111 12.67029333 30.51064888s-4.22343111 22.02737778-12.67029333 30.51064889a41.57895111 41.57895111 0 0 1-30.51064889 12.67029333h-130.12536889v32.40391112c0 115.16131555 57.59886222 172.76017778 172.76017778 172.76017778 11.86929778 0 22.02737778 4.22343111 30.51064889 12.70670222 8.44686222 8.44686222 12.67029333 18.60494222 12.67029333 30.51064888s-4.22343111 22.02737778-12.67029333 30.5106489a41.79740445 41.79740445 0 0 1-30.51064889 12.63388444zM978.43427555 300.55082667a318.54136889 318.54136889 0 0 1-27.34307555 75.32999111c-7.28177778 14.16305778-15.21891555 28.10766222-23.81141333 41.83381333s-17.58549333 27.23384889-27.05180445 40.55950222c-5.13365333 9.86680889-12.01493333 16.52963555-20.60743111 19.95207112-8.59249778 3.42243555-16.96654222 4.18702222-25.12213333 2.2573511s-15.10968889-6.5536-20.93511111-13.83537777c-5.78901333-7.28177778-8.48327111-16.52963555-8.04636445-27.67075556 0.43690667-7.28177778 2.47580445-13.61692445 6.11669333-18.96903111l11.25034667-16.42040889c8.59249778-12.88874667 17.07576889-25.95953778 25.41340445-39.28519111 8.37404445-13.28924445 15.32814222-27.45230222 20.93511111-42.48917333 8.15559111-21.88174222 13.94460445-46.02083555 17.36704-72.41728 3.42243555-26.39644445 4.51470222-53.19338667 3.20398222-80.46364445-1.27431111-27.27025778-5.13365333-53.73952-11.57802667-79.48060444s-15.87427555-48.71509333-28.32611555-68.88561778c-3.02193778-4.73315555-5.78901333-8.77454222-8.37404445-12.23338666a85.1968 85.1968 0 0 0-8.04636444-9.32067556l-17.69472-17.69472-8.99299556-9.64835556a64.44373333 64.44373333 0 0 1-6.44437333-20.93511111c-0.87381333-7.06332445-0.10922667-13.61692445 2.25735111-19.62439111 2.36657778-6.00746667 6.44437333-10.95907555 12.23338667-14.81841778s13.18001778-5.78901333 22.20942222-5.78901333c9.86680889 0 18.89621333 3.02193778 27.05180445 9.02940445 8.15559111 6.00746667 15.43736889 12.45184 21.88174222 19.33312 15.00046222 15.87427555 27.34307555 34.22435555 37.02784 55.0138311 9.64835555 20.82588445 17.91317333 41.50613333 24.79445333 62.11356445 7.71868445 24.02986667 13.50769778 49.88017778 17.36704 77.55093333 3.85934222 27.67075555 5.24288 55.66919111 4.18702222 83.99530667a442.14954667 442.14954667 0 0 1-10.92266667 83.01226667zM751.93457778-13.293795550000027a26.2144 26.2144 0 0 1-1.71121778 1.96608l-6.77205333 7.71868444a581.74122667 581.74122667 0 0 0-9.32067556 10.95907556 77.04120889 77.04120889 0 0 0-8.37404444 11.90570666 255.40835555 255.40835555 0 0 0-28.32611556 67.90257778 370.75171555 370.75171555 0 0 0-11.57802666 75.62126222c-1.27431111 25.74108445-0.43690667 51.40935111 2.5850311 76.93198222a448.77596445 448.77596445 0 0 0 17.36704 82.39331556c1.27431111 3.64088889 3.09475555 7.82791111 5.46133334 12.56106666a1094.15992889 1094.15992889 0 0 0 22.82837333 42.45276445c3.85934222 6.00746667 8.92017778 13.28924445 15.10968889 21.88174222 6.22592 8.59249778 11.35957333 17.47626667 15.43736889 26.72412445 4.07779555 9.21144889 5.67978667 18.24085333 4.84238222 27.05180444-0.83740445 8.77454222-6.44437333 16.42040889-16.74808889 22.82837334-10.74062222 6.44437333-20.71665778 7.93713778-29.92810666 4.51470222s-17.69472-9.21144889-25.41340445-17.36704a139.30040889 139.30040889 0 0 1-20.27975111-27.67075556l-14.49073778-25.74108444c-6.44437333-12.01493333-12.88874667-23.92064-19.29671111-35.71712a187.10528 187.10528 0 0 1-15.43736889-37.64679112c-15.87427555-51.91907555-22.97400889-105.25809778-21.22638222-159.94424888s13.50769778-107.36981333 35.38944-158.01457778c3.42243555-8.59249778 8.59249778-19.73361778 15.43736889-33.45976889s15.03687111-26.83335111 24.46677333-39.24878222 20.06129778-22.31864889 31.85777778-29.60042667c11.79648-7.28177778 24.13909333-8.59249778 37.02784-3.85934222 13.72615111 5.57056 21.44483555 14.27228445 23.15605334 26.06876444a57.05272889 57.05272889 0 0 1-6.44437334 35.09816889l-15.61941333 13.68974223z"  horiz-adv-x="1024" />

    


  </font>
</defs>
</svg>
